<?xml version="1.0" encoding="UTF-8"?>
<svg width="12px" height="12px" viewBox="0 0 12 12" version="1.1" xmlns="http://www.w3.org/2000/svg" xmlns:xlink="http://www.w3.org/1999/xlink">
    <!-- Generator: Sketch 51.1 (57501) - http://www.bohemiancoding.com/sketch -->
    <title>check</title>
    <desc>Created with Sketch.</desc>
    <defs></defs>
    <g id="Page-1" stroke="none" stroke-width="1" fill="none" fill-rule="evenodd">
        <g id="check" fill-rule="nonzero">
            <path d="M0,2.99715203 C0,1.34187067 1.34162278,0 2.99715203,0 L9.00284797,0 C10.6581293,0 12,1.34162278 12,2.99715203 L12,9.00284797 C12,10.6581293 10.6583772,12 9.00284797,12 L2.99715203,12 C1.34187067,12 0,10.6583772 0,9.00284797 L0,2.99715203 Z" id="Rectangle-1" fill="#000000"></path>
            <path d="M5.37021513,7.63306761 L8.56061829,3.07669969 C8.75953836,2.79261239 9.14854929,2.72178945 9.4339114,2.92160215 C9.7172978,3.12003145 9.78327842,3.51474862 9.58685123,3.79527573 L5.9957483,8.92390222 C5.87377597,9.09809676 5.68033315,9.19210804 5.4831389,9.19270962 C5.30248176,9.21044789 5.11623426,9.1508122 4.98147933,9.01605727 L2.79048463,6.82506257 C2.54748037,6.58205831 2.54708815,6.18846279 2.79341786,5.94213307 C3.0380421,5.69750884 3.43784552,5.700698 3.67634736,5.93919984 L5.37021513,7.63306761 Z" id="Shape" fill="#FFFFFF"></path>
        </g>
    </g>
</svg>